With: Chuck Norris, David Carradine en Barbara Carrera

The archetypical renegade Texas Ranger wages war against a drug kingpin with automatic weapons, his wits and martial arts after a gun battle leaves his partner dead. All of this inevitably culminates a martial arts showdown between the drug lord and the ranger, and involving the woman they both love.

General:

Complete name                    : Klambake\Lone Wolf\McQuade.avi
Format                           : AVI
Format/Info                      : Audio Video Interleave
File size                        : 1.08 GiB
Duration                         : 1h 42mn
Overall bit rate                 : 1 509 Kbps

Video:

Format                           : MPEG-4 Visual
Format profile                   : Simple@L3
Format settings, BVOP            : No
Format settings, QPel            : No
Format settings, GMC             : No warppoints
Format settings, Matrix          : Default (H.263)
Codec ID                         : XVID
Codec ID/Hint                    : XviD
Duration                         : 1h 42mn
Bit rate                         : 1 336 Kbps
Width                            : 720 pixels
Height                           : 576 pixels
Display aspect ratio             : 5:4
Frame rate                       : 25.000 fps
Standard                         : PAL
Color space                      : YUV
Chroma subsampling               : 4:2:0
Bit depth                        : 8 bits
Scan type                        : Progressive
Bits/(Pixel*Frame)               : 0.129
Stream size                      : 980 MiB (89%)
Writing library                  : XviD 1.1.2 (UTC 2006-11-01)

Audio:

Format                           : MPEG Audio
Format version                   : Version 1
Format profile                   : Layer 3
Mode                             : Joint stereo
Mode extension                   : MS Stereo
Codec ID                         : 55
Codec ID/Hint                    : MP3
Duration                         : 1h 42mn
Bit rate mode                    : Constant
Bit rate                         : 160 Kbps
Channel(s)                       : 2 channels
Sampling rate                    : 48.0 KHz
Stream size                      : 117 MiB (11%)
Alignment                        : Split accross interleaves
Interleave, duration             : 24 ms (0.60 video frame)
Interleave, preload duration     : 837 ms